<svg id="eDh9urBsfUM1" xmlns="http://www.w3.org/2000/svg" xmlns:xlink="http://www.w3.org/1999/xlink" viewBox="0 0 64 64" shape-rendering="geometricPrecision" text-rendering="geometricPrecision"><g><g transform="translate(32 32)"><g transform="matrix(1 0.000163-.000163 1 0 0)"><g><line x1="0" y1="0" x2="0" y2="3" transform="translate(0 9)" fill="none" stroke="#ffa500" stroke-width="2" stroke-linecap="round" stroke-dashoffset="-0.033332" stroke-dasharray="2.90334,10"/></g><g transform="matrix(.707107 0.707107-.707107 0.707107 0 0)"><line x1="0" y1="0" x2="0" y2="3" transform="translate(0 9)" fill="none" stroke="#ffa500" stroke-width="2" stroke-linecap="round" stroke-dashoffset="-0.033332" stroke-dasharray="2.90334,10"/></g><g transform="matrix(0 1-1 0 0 0)"><line x1="0" y1="0" x2="0" y2="3" transform="translate(0 9)" fill="none" stroke="#ffa500" stroke-width="2" stroke-linecap="round" stroke-dashoffset="-0.033332" stroke-dasharray="2.90334,10"/></g><g transform="matrix(-.707107 0.707107-.707107-.707107 0 0)"><line x1="0" y1="0" x2="0" y2="3" transform="translate(0 9)" fill="none" stroke="#ffa500" stroke-width="2" stroke-linecap="round" stroke-dashoffset="-0.033332" stroke-dasharray="2.90334,10"/></g><g transform="matrix(-1 0 0-1 0 0)"><line x1="0" y1="0" x2="0" y2="3" transform="translate(0 9)" fill="none" stroke="#ffa500" stroke-width="2" stroke-linecap="round" stroke-dashoffset="-0.033332" stroke-dasharray="2.90334,10"/></g><g transform="matrix(-.707107-.707107 0.707107-.707107 0 0)"><line x1="0" y1="0" x2="0" y2="3" transform="translate(0 9)" fill="none" stroke="#ffa500" stroke-width="2" stroke-linecap="round" stroke-dashoffset="-0.033332" stroke-dasharray="2.90334,10"/></g><g transform="matrix(0-1 1 0 0 0)"><line x1="0" y1="0" x2="0" y2="3" transform="translate(0 9)" fill="none" stroke="#ffa500" stroke-width="2" stroke-linecap="round" stroke-dashoffset="-0.033332" stroke-dasharray="2.90334,10"/></g><g transform="matrix(.707107-.707107 0.707107 0.707107 0 0)"><line x1="0" y1="0" x2="0" y2="3" transform="translate(0 9)" fill="none" stroke="#ffa500" stroke-width="2" stroke-linecap="round" stroke-dashoffset="-0.033332" stroke-dasharray="2.90334,10"/></g></g><circle r="5" fill="#ffa500" stroke="#ffa500" stroke-width="2"/></g></g></svg>